<svg id="open-lock" width="24" height="24" viewBox="0 0 24 24" fill="none" xmlns="http://www.w3.org/2000/svg">
<rect opacity="0.12" x="3" y="8" width="18" height="14" rx="4" fill="#2F384C"/>
<path d="M7 8V6.8C7 5.11984 7 4.27976 7.32698 3.63803C7.6146 3.07354 8.07354 2.6146 8.63803 2.32698C9.27976 2 10.1198 2 11.8 2H15C16.1046 2 17 2.89543 17 4V4V4.5M12 14V16M9.4 22H14.6C16.8402 22 17.9603 22 18.816 21.564C19.5686 21.1805 20.1805 20.5686 20.564 19.816C21 18.9603 21 17.8402 21 15.6V14.4C21 12.1598 21 11.0397 20.564 10.184C20.1805 9.43139 19.5686 8.81947 18.816 8.43597C17.9603 8 16.8402 8 14.6 8H9.4C7.15979 8 6.03968 8 5.18404 8.43597C4.43139 8.81947 3.81947 9.43139 3.43597 10.184C3 11.0397 3 12.1598 3 14.4V15.6C3 17.8402 3 18.9603 3.43597 19.816C3.81947 20.5686 4.43139 21.1805 5.18404 21.564C6.03968 22 7.15979 22 9.4 22Z" stroke="#2F384C" stroke-width="1.5" stroke-linecap="round"/>
</svg>

<svg id="account" width="24" height="24" viewBox="0 0 24 24" fill="none" xmlns="http://www.w3.org/2000/svg">
<g opacity="0.12">
<path d="M4 18.8C4 16.149 6.14903 14 8.8 14H15.2C17.851 14 20 16.149 20 18.8V18.8C20 20.5673 18.5673 22 16.8 22H7.2C5.43269 22 4 20.5673 4 18.8V18.8Z" fill="#2F384C"/>
<path d="M16 6C16 8.20914 14.2091 10 12 10C9.79086 10 8 8.20914 8 6C8 3.79086 9.79086 2 12 2C14.2091 2 16 3.79086 16 6Z" fill="#2F384C"/>
</g>
<path d="M4 18.8C4 16.149 6.14903 14 8.8 14H15.2C17.851 14 20 16.149 20 18.8V18.8C20 20.5673 18.5673 22 16.8 22H7.2C5.43269 22 4 20.5673 4 18.8V18.8Z" stroke="#2F384C" stroke-width="1.5" stroke-linecap="round" stroke-linejoin="round"/>
<path d="M16 6C16 8.20914 14.2091 10 12 10C9.79086 10 8 8.20914 8 6C8 3.79086 9.79086 2 12 2C14.2091 2 16 3.79086 16 6Z" stroke="#2F384C" stroke-width="1.5" stroke-linecap="round" stroke-linejoin="round"/>
</svg>

<svg id="home" width="24" height="24" viewBox="0 0 24 24" fill="none" xmlns="http://www.w3.org/2000/svg">
<path opacity="0.12" d="M22 17V11.845C22 10.433 22 9.72701 21.8204 9.07517C21.6613 8.49771 21.3998 7.95353 21.0483 7.46857C20.6514 6.92115 20.1001 6.48011 18.9976 5.59805L16.9976 3.99805C15.214 2.57118 14.3222 1.85774 13.3332 1.58413C12.4608 1.34279 11.5392 1.34279 10.6668 1.58413C9.67783 1.85774 8.78603 2.57118 7.00244 3.99805L5.00244 5.59805C3.89986 6.48011 3.34857 6.92115 2.95174 7.46857C2.6002 7.95353 2.33865 8.49771 2.17957 9.07517C2 9.72701 2 10.433 2 11.845V17C2 19.7614 4.23858 22 7 22C8.10457 22 9 21.1046 9 20V15.9999C9 14.3431 10.3431 12.9999 12 12.9999C13.6569 12.9999 15 14.3431 15 15.9999V20C15 21.1046 15.8954 22 17 22C19.7614 22 22 19.7614 22 17Z" fill="#2F384C"/>
<path d="M22 17V11.845C22 10.433 22 9.72701 21.8204 9.07517C21.6613 8.49771 21.3998 7.95353 21.0483 7.46857C20.6514 6.92115 20.1001 6.48011 18.9976 5.59805L16.9976 3.99805C15.214 2.57118 14.3222 1.85774 13.3332 1.58413C12.4608 1.34279 11.5392 1.34279 10.6668 1.58413C9.67783 1.85774 8.78603 2.57118 7.00244 3.99805L5.00244 5.59805C3.89986 6.48011 3.34857 6.92115 2.95174 7.46857C2.6002 7.95353 2.33865 8.49771 2.17957 9.07517C2 9.72701 2 10.433 2 11.845V17C2 19.7614 4.23858 22 7 22C8.10457 22 9 21.1046 9 20V15.9999C9 14.3431 10.3431 12.9999 12 12.9999C13.6569 12.9999 15 14.3431 15 15.9999V20C15 21.1046 15.8954 22 17 22C19.7614 22 22 19.7614 22 17Z" stroke="#2F384C" stroke-width="1.5" stroke-linecap="round" stroke-linejoin="round"/>
</svg>